<mxfile host="app.diagrams.net" agent="Mozilla/5.0 (Windows NT 10.0; Win64; x64) AppleWebKit/537.36 (KHTML, like Gecko) Chrome/127.0.0.0 Safari/537.36" version="24.7.6">
  <diagram name="PÃ¡gina-1" id="tz8Udns7VqCCQV0ccwI3">
    <mxGraphModel dx="528" dy="441" grid="1" gridSize="10" guides="1" tooltips="1" connect="1" arrows="1" fold="1" page="1" pageScale="1" pageWidth="827" pageHeight="1169" math="0" shadow="0">
      <root>
        <mxCell id="0" />
        <mxCell id="1" parent="0" />
        <mxCell id="-tB_xNE38hooQfxC4I0e-1" value="Aluno" style="shape=table;startSize=30;container=1;collapsible=0;childLayout=tableLayout;fixedRows=1;rowLines=0;fontStyle=0;strokeColor=default;fontSize=16;" vertex="1" parent="1">
          <mxGeometry x="149" y="150" width="530" height="240" as="geometry" />
        </mxCell>
        <mxCell id="-tB_xNE38hooQfxC4I0e-2" value="" style="shape=tableRow;horizontal=0;startSize=0;swimlaneHead=0;swimlaneBody=0;top=0;left=0;bottom=0;right=0;collapsible=0;dropTarget=0;fillColor=none;points=[[0,0.5],[1,0.5]];portConstraint=eastwest;strokeColor=inherit;fontSize=16;" vertex="1" parent="-tB_xNE38hooQfxC4I0e-1">
          <mxGeometry y="30" width="530" height="30" as="geometry" />
        </mxCell>
        <mxCell id="-tB_xNE38hooQfxC4I0e-3" value="PK" style="shape=partialRectangle;html=1;whiteSpace=wrap;connectable=0;fillColor=none;top=0;left=0;bottom=0;right=0;overflow=hidden;pointerEvents=1;strokeColor=inherit;fontSize=16;" vertex="1" parent="-tB_xNE38hooQfxC4I0e-2">
          <mxGeometry width="119" height="30" as="geometry">
            <mxRectangle width="119" height="30" as="alternateBounds" />
          </mxGeometry>
        </mxCell>
        <mxCell id="-tB_xNE38hooQfxC4I0e-4" value="matricula_aluno INT NOT NULL AUTO_INCREMENT" style="shape=partialRectangle;html=1;whiteSpace=wrap;connectable=0;fillColor=none;top=0;left=0;bottom=0;right=0;align=left;spacingLeft=6;overflow=hidden;strokeColor=inherit;fontSize=16;" vertex="1" parent="-tB_xNE38hooQfxC4I0e-2">
          <mxGeometry x="119" width="411" height="30" as="geometry">
            <mxRectangle width="411" height="30" as="alternateBounds" />
          </mxGeometry>
        </mxCell>
        <mxCell id="-tB_xNE38hooQfxC4I0e-5" value="" style="shape=tableRow;horizontal=0;startSize=0;swimlaneHead=0;swimlaneBody=0;top=0;left=0;bottom=0;right=0;collapsible=0;dropTarget=0;fillColor=none;points=[[0,0.5],[1,0.5]];portConstraint=eastwest;strokeColor=inherit;fontSize=16;" vertex="1" parent="-tB_xNE38hooQfxC4I0e-1">
          <mxGeometry y="60" width="530" height="30" as="geometry" />
        </mxCell>
        <mxCell id="-tB_xNE38hooQfxC4I0e-6" value="" style="shape=partialRectangle;html=1;whiteSpace=wrap;connectable=0;fillColor=none;top=0;left=0;bottom=0;right=0;overflow=hidden;strokeColor=inherit;fontSize=16;" vertex="1" parent="-tB_xNE38hooQfxC4I0e-5">
          <mxGeometry width="119" height="30" as="geometry">
            <mxRectangle width="119" height="30" as="alternateBounds" />
          </mxGeometry>
        </mxCell>
        <mxCell id="-tB_xNE38hooQfxC4I0e-7" value="nome_aluno VARCHAR(255) NOT NULL" style="shape=partialRectangle;html=1;whiteSpace=wrap;connectable=0;fillColor=none;top=0;left=0;bottom=0;right=0;align=left;spacingLeft=6;overflow=hidden;strokeColor=inherit;fontSize=16;" vertex="1" parent="-tB_xNE38hooQfxC4I0e-5">
          <mxGeometry x="119" width="411" height="30" as="geometry">
            <mxRectangle width="411" height="30" as="alternateBounds" />
          </mxGeometry>
        </mxCell>
        <mxCell id="-tB_xNE38hooQfxC4I0e-8" value="" style="shape=tableRow;horizontal=0;startSize=0;swimlaneHead=0;swimlaneBody=0;top=0;left=0;bottom=0;right=0;collapsible=0;dropTarget=0;fillColor=none;points=[[0,0.5],[1,0.5]];portConstraint=eastwest;strokeColor=inherit;fontSize=16;" vertex="1" parent="-tB_xNE38hooQfxC4I0e-1">
          <mxGeometry y="90" width="530" height="30" as="geometry" />
        </mxCell>
        <mxCell id="-tB_xNE38hooQfxC4I0e-9" value="" style="shape=partialRectangle;html=1;whiteSpace=wrap;connectable=0;fillColor=none;top=0;left=0;bottom=0;right=0;overflow=hidden;strokeColor=inherit;fontSize=16;" vertex="1" parent="-tB_xNE38hooQfxC4I0e-8">
          <mxGeometry width="119" height="30" as="geometry">
            <mxRectangle width="119" height="30" as="alternateBounds" />
          </mxGeometry>
        </mxCell>
        <mxCell id="-tB_xNE38hooQfxC4I0e-10" value="cpf_aluno CHAR(11) NOT NULL UNIQUE" style="shape=partialRectangle;html=1;whiteSpace=wrap;connectable=0;fillColor=none;top=0;left=0;bottom=0;right=0;align=left;spacingLeft=6;overflow=hidden;strokeColor=inherit;fontSize=16;" vertex="1" parent="-tB_xNE38hooQfxC4I0e-8">
          <mxGeometry x="119" width="411" height="30" as="geometry">
            <mxRectangle width="411" height="30" as="alternateBounds" />
          </mxGeometry>
        </mxCell>
        <mxCell id="-tB_xNE38hooQfxC4I0e-21" value="" style="shape=tableRow;horizontal=0;startSize=0;swimlaneHead=0;swimlaneBody=0;top=0;left=0;bottom=0;right=0;collapsible=0;dropTarget=0;fillColor=none;points=[[0,0.5],[1,0.5]];portConstraint=eastwest;strokeColor=inherit;fontSize=16;" vertex="1" parent="-tB_xNE38hooQfxC4I0e-1">
          <mxGeometry y="120" width="530" height="30" as="geometry" />
        </mxCell>
        <mxCell id="-tB_xNE38hooQfxC4I0e-22" value="" style="shape=partialRectangle;html=1;whiteSpace=wrap;connectable=0;fillColor=none;top=0;left=0;bottom=0;right=0;overflow=hidden;strokeColor=inherit;fontSize=16;" vertex="1" parent="-tB_xNE38hooQfxC4I0e-21">
          <mxGeometry width="119" height="30" as="geometry">
            <mxRectangle width="119" height="30" as="alternateBounds" />
          </mxGeometry>
        </mxCell>
        <mxCell id="-tB_xNE38hooQfxC4I0e-23" value="data_nascimento_aluno DATE NOT NULL" style="shape=partialRectangle;html=1;whiteSpace=wrap;connectable=0;fillColor=none;top=0;left=0;bottom=0;right=0;align=left;spacingLeft=6;overflow=hidden;strokeColor=inherit;fontSize=16;" vertex="1" parent="-tB_xNE38hooQfxC4I0e-21">
          <mxGeometry x="119" width="411" height="30" as="geometry">
            <mxRectangle width="411" height="30" as="alternateBounds" />
          </mxGeometry>
        </mxCell>
        <mxCell id="-tB_xNE38hooQfxC4I0e-24" value="" style="shape=tableRow;horizontal=0;startSize=0;swimlaneHead=0;swimlaneBody=0;top=0;left=0;bottom=0;right=0;collapsible=0;dropTarget=0;fillColor=none;points=[[0,0.5],[1,0.5]];portConstraint=eastwest;strokeColor=inherit;fontSize=16;" vertex="1" parent="-tB_xNE38hooQfxC4I0e-1">
          <mxGeometry y="150" width="530" height="30" as="geometry" />
        </mxCell>
        <mxCell id="-tB_xNE38hooQfxC4I0e-25" value="" style="shape=partialRectangle;html=1;whiteSpace=wrap;connectable=0;fillColor=none;top=0;left=0;bottom=0;right=0;overflow=hidden;strokeColor=inherit;fontSize=16;" vertex="1" parent="-tB_xNE38hooQfxC4I0e-24">
          <mxGeometry width="119" height="30" as="geometry">
            <mxRectangle width="119" height="30" as="alternateBounds" />
          </mxGeometry>
        </mxCell>
        <mxCell id="-tB_xNE38hooQfxC4I0e-26" value="ano_matricula_aluno YEAR NOT NULL" style="shape=partialRectangle;html=1;whiteSpace=wrap;connectable=0;fillColor=none;top=0;left=0;bottom=0;right=0;align=left;spacingLeft=6;overflow=hidden;strokeColor=inherit;fontSize=16;" vertex="1" parent="-tB_xNE38hooQfxC4I0e-24">
          <mxGeometry x="119" width="411" height="30" as="geometry">
            <mxRectangle width="411" height="30" as="alternateBounds" />
          </mxGeometry>
        </mxCell>
        <mxCell id="-tB_xNE38hooQfxC4I0e-27" value="" style="shape=tableRow;horizontal=0;startSize=0;swimlaneHead=0;swimlaneBody=0;top=0;left=0;bottom=0;right=0;collapsible=0;dropTarget=0;fillColor=none;points=[[0,0.5],[1,0.5]];portConstraint=eastwest;strokeColor=inherit;fontSize=16;" vertex="1" parent="-tB_xNE38hooQfxC4I0e-1">
          <mxGeometry y="180" width="530" height="30" as="geometry" />
        </mxCell>
        <mxCell id="-tB_xNE38hooQfxC4I0e-28" value="" style="shape=partialRectangle;html=1;whiteSpace=wrap;connectable=0;fillColor=none;top=0;left=0;bottom=0;right=0;overflow=hidden;strokeColor=inherit;fontSize=16;" vertex="1" parent="-tB_xNE38hooQfxC4I0e-27">
          <mxGeometry width="119" height="30" as="geometry">
            <mxRectangle width="119" height="30" as="alternateBounds" />
          </mxGeometry>
        </mxCell>
        <mxCell id="-tB_xNE38hooQfxC4I0e-29" value="media_aluno DECIMAL(3,1)" style="shape=partialRectangle;html=1;whiteSpace=wrap;connectable=0;fillColor=none;top=0;left=0;bottom=0;right=0;align=left;spacingLeft=6;overflow=hidden;strokeColor=inherit;fontSize=16;" vertex="1" parent="-tB_xNE38hooQfxC4I0e-27">
          <mxGeometry x="119" width="411" height="30" as="geometry">
            <mxRectangle width="411" height="30" as="alternateBounds" />
          </mxGeometry>
        </mxCell>
        <mxCell id="-tB_xNE38hooQfxC4I0e-30" value="" style="shape=tableRow;horizontal=0;startSize=0;swimlaneHead=0;swimlaneBody=0;top=0;left=0;bottom=0;right=0;collapsible=0;dropTarget=0;fillColor=none;points=[[0,0.5],[1,0.5]];portConstraint=eastwest;strokeColor=inherit;fontSize=16;" vertex="1" parent="-tB_xNE38hooQfxC4I0e-1">
          <mxGeometry y="210" width="530" height="30" as="geometry" />
        </mxCell>
        <mxCell id="-tB_xNE38hooQfxC4I0e-31" value="" style="shape=partialRectangle;html=1;whiteSpace=wrap;connectable=0;fillColor=none;top=0;left=0;bottom=0;right=0;overflow=hidden;strokeColor=inherit;fontSize=16;" vertex="1" parent="-tB_xNE38hooQfxC4I0e-30">
          <mxGeometry width="119" height="30" as="geometry">
            <mxRectangle width="119" height="30" as="alternateBounds" />
          </mxGeometry>
        </mxCell>
        <mxCell id="-tB_xNE38hooQfxC4I0e-32" value="faltas_aluno INT DEFAULT 0" style="shape=partialRectangle;html=1;whiteSpace=wrap;connectable=0;fillColor=none;top=0;left=0;bottom=0;right=0;align=left;spacingLeft=6;overflow=hidden;strokeColor=inherit;fontSize=16;" vertex="1" parent="-tB_xNE38hooQfxC4I0e-30">
          <mxGeometry x="119" width="411" height="30" as="geometry">
            <mxRectangle width="411" height="30" as="alternateBounds" />
          </mxGeometry>
        </mxCell>
      </root>
    </mxGraphModel>
  </diagram>
</mxfile>
